<svg data-v-fde0c5aa="" xmlns="http://www.w3.org/2000/svg" viewBox="0 0 300 300" class="iconLeftSlogan"><!----><defs data-v-fde0c5aa=""><!----></defs><rect data-v-fde0c5aa="" fill="#509FF9" x="0" y="0" width="300px" height="300px" class="logo-background-square"></rect><defs data-v-fde0c5aa=""><!----></defs><g data-v-fde0c5aa="" id="69f22476-4298-4d35-b0bb-6e9239434716" fill="#FFC096" transform="matrix(1.6464762105242179,0,0,1.6464762105242179,102.4980801623655,126.57706789802334)"><path d="M1.74 3.57L0.18 4.69L0.28 4.89L0.28 4.89Q0.64 4.77 0.67 5.36L0.67 5.36L0.67 5.36Q0.59 11.50 0.71 11.98L0.71 11.98L0.71 11.98Q0.83 12.46 1.42 12.75L1.42 12.75L2.87 11.60L2.65 11.39L2.65 11.39Q2.40 11.41 2.26 11.03L2.26 11.03L2.26 11.03Q2.11 10.65 2.19 4.36L2.19 4.36L2.19 4.36Q2.10 3.82 1.74 3.57L1.74 3.57ZM4.94 6.42L3.26 7.64L3.42 7.87L3.42 7.87Q3.92 7.56 3.87 8.50L3.87 8.50L3.87 8.50Q3.80 11.46 3.89 11.91L3.89 11.91L3.89 11.91Q3.98 12.37 4.55 12.71L4.55 12.71L6.00 11.46L6.00 11.29L6.00 11.29Q5.54 11.40 5.42 10.78L5.42 10.78L5.42 10.78Q5.30 10.17 5.37 8.27L5.37 8.27L5.37 8.27Q6.25 7.48 6.85 7.71L6.85 7.71L6.85 7.71Q7.46 7.94 7.45 9.37L7.45 9.37L7.45 9.37Q7.42 11.42 7.46 11.91L7.46 11.91L7.46 11.91Q7.51 12.40 8.05 12.76L8.05 12.76L9.47 11.49L9.44 11.33L9.44 11.33Q9.08 11.44 8.97 10.81L8.97 10.81L8.97 10.81Q8.85 10.18 8.92 8.74L8.92 8.74L8.92 8.74Q8.97 7.86 8.78 7.33L8.78 7.33L8.78 7.33Q8.59 6.80 7.96 6.56L7.96 6.56L7.96 6.56Q7.34 6.31 6.81 6.57L6.81 6.57L6.81 6.57Q6.28 6.83 5.93 7.12L5.93 7.12L5.93 7.12Q5.58 7.40 5.40 7.62L5.40 7.62L5.40 7.62Q5.46 6.77 4.94 6.42L4.94 6.42ZM12.50 6.52L12.50 6.52L12.50 6.52Q11.79 6.63 11.33 6.92L11.33 6.92L11.33 6.92Q10.88 7.21 10.56 7.52L10.56 7.52L10.56 7.52Q10.25 7.84 10.08 8.41L10.08 8.41L10.08 8.41Q9.92 8.98 10.37 9.39L10.37 9.39L10.37 9.39Q10.83 9.80 11.88 10.02L11.88 10.02L11.88 10.02Q12.93 10.24 13.28 10.55L13.28 10.55L13.28 10.55Q13.62 10.87 13.65 11.14L13.65 11.14L13.65 11.14Q13.69 11.42 13.44 11.52L13.44 11.52L13.44 11.52Q13.19 11.61 12.68 11.54L12.68 11.54L12.68 11.54Q12.17 11.46 11.71 11.22L11.71 11.22L11.71 11.22Q11.24 10.99 10.91 10.65L10.91 10.65L10.91 10.65Q10.58 10.32 10.86 10.02L10.86 10.02L10.70 9.93L9.64 10.84L9.64 10.84Q9.52 11.20 9.92 11.67L9.92 11.67L9.92 11.67Q10.32 12.14 10.93 12.40L10.93 12.40L10.93 12.40Q11.55 12.66 12.19 12.70L12.19 12.70L12.19 12.70Q12.83 12.74 13.47 12.32L13.47 12.32L13.47 12.32Q14.12 11.90 14.42 11.35L14.42 11.35L14.42 11.35Q14.72 10.81 14.66 10.26L14.66 10.26L14.66 10.26Q14.59 9.71 14.24 9.30L14.24 9.30L14.24 9.30Q13.88 8.88 12.70 8.55L12.70 8.55L12.70 8.55Q11.52 8.22 11.33 7.84L11.33 7.84L11.33 7.84Q11.14 7.45 11.62 7.38L11.62 7.38L11.62 7.38Q12.11 7.31 12.77 7.63L12.77 7.63L12.77 7.63Q13.43 7.96 13.21 8.25L13.21 8.25L13.30 8.35L14.31 7.38L14.31 7.38Q14.21 6.92 13.71 6.67L13.71 6.67L13.71 6.67Q13.21 6.41 12.50 6.52ZM17.21 3.70L15.97 4.68L15.97 4.68Q16.37 4.64 16.19 6.90L16.19 6.90L15.75 6.91L14.77 8.26L14.98 8.45L14.98 8.45Q15.30 8.09 16.15 8.13L16.15 8.13L16.15 8.13Q16.03 11.08 16.16 11.67L16.16 11.67L16.16 11.67Q16.28 12.25 16.96 12.72L16.96 12.72L16.96 12.72Q17.90 12.24 19.21 11.16L19.21 11.16L19.09 10.63L19.09 10.63Q17.62 11.38 17.53 10.75L17.53 10.75L17.53 10.75Q17.45 10.13 17.51 8.13L17.51 8.13L18.37 8.13L19.26 7.02L19.21 6.88L17.54 6.86L17.62 4.57L17.62 4.57Q17.54 3.98 17.21 3.70L17.21 3.70ZM20.88 3.68L19.51 4.86L19.51 4.86Q20.15 5.30 20.47 5.91L20.47 5.91L20.47 5.91Q21.62 5.15 21.76 4.96L21.76 4.96L21.76 4.96Q21.90 4.76 21.69 4.31L21.69 4.31L21.69 4.31Q21.48 3.86 20.88 3.68L20.88 3.68ZM19.72 7.76L19.72 7.76Q20.30 7.43 20.10 9.23L20.10 9.23L20.10 9.23Q20.07 11.37 20.12 11.88L20.12 11.88L20.12 11.88Q20.17 12.39 20.73 12.72L20.73 12.72L22.09 11.45L22.09 11.27L22.09 11.27Q21.72 11.29 21.63 10.76L21.63 10.76L21.63 10.76Q21.55 10.23 21.58 8.94L21.58 8.94L21.58 8.94Q21.62 7.65 21.60 7.25L21.60 7.25L21.60 7.25Q21.59 6.85 21.23 6.45L21.23 6.45L19.61 7.57L19.72 7.76ZM24.68 3.70L23.44 4.68L23.44 4.68Q23.84 4.64 23.67 6.90L23.67 6.90L23.22 6.91L22.24 8.26L22.45 8.45L22.45 8.45Q22.77 8.09 23.63 8.13L23.63 8.13L23.63 8.13Q23.50 11.08 23.63 11.67L23.63 11.67L23.63 11.67Q23.75 12.25 24.43 12.72L24.43 12.72L24.43 12.72Q25.37 12.24 26.68 11.16L26.68 11.16L26.56 10.63L26.56 10.63Q25.09 11.38 25.00 10.75L25.00 10.75L25.00 10.75Q24.92 10.13 24.99 8.13L24.99 8.13L25.84 8.13L26.74 7.02L26.68 6.88L25.01 6.86L25.09 4.57L25.09 4.57Q25.01 3.98 24.68 3.70L24.68 3.70ZM31.55 12.76L33.23 11.54L33.07 11.31L33.07 11.31Q32.62 11.40 32.62 10.68L32.62 10.68L32.62 10.68Q32.69 7.72 32.60 7.27L32.60 7.27L32.60 7.27Q32.51 6.82 31.94 6.47L31.94 6.47L30.49 7.72L30.56 7.85L30.56 7.85Q30.96 7.65 31.08 8.33L31.08 8.33L31.08 8.33Q31.19 9.02 31.12 10.91L31.12 10.91L31.12 10.91Q30.24 11.70 29.64 11.47L29.64 11.47L29.64 11.47Q29.03 11.25 29.04 9.81L29.04 9.81L29.04 9.81Q29.07 7.76 29.03 7.27L29.03 7.27L29.03 7.27Q28.98 6.78 28.44 6.42L28.44 6.42L27.02 7.69L27.15 7.85L27.15 7.85Q27.41 7.66 27.49 8.36L27.49 8.36L27.49 8.36Q27.58 9.07 27.53 10.51L27.53 10.51L27.53 10.51Q27.47 11.39 27.69 11.88L27.69 11.88L27.69 11.88Q27.90 12.38 28.53 12.63L28.53 12.63L28.53 12.63Q29.15 12.87 29.68 12.61L29.68 12.61L29.68 12.61Q30.21 12.35 30.56 12.07L30.56 12.07L30.56 12.07Q30.91 11.78 31.09 11.57L31.09 11.57L31.09 11.57Q31.03 12.41 31.55 12.76L31.55 12.76ZM35.67 3.70L34.43 4.68L34.43 4.68Q34.83 4.64 34.65 6.90L34.65 6.90L34.21 6.91L33.22 8.26L33.43 8.45L33.43 8.45Q33.76 8.09 34.61 8.13L34.61 8.13L34.61 8.13Q34.49 11.08 34.61 11.67L34.61 11.67L34.61 11.67Q34.74 12.25 35.42 12.72L35.42 12.72L35.42 12.72Q36.35 12.24 37.67 11.16L37.67 11.16L37.54 10.63L37.54 10.63Q36.07 11.38 35.99 10.75L35.99 10.75L35.99 10.75Q35.90 10.13 35.97 8.13L35.97 8.13L36.83 8.13L37.72 7.02L37.67 6.88L36.00 6.86L36.07 4.57L36.07 4.57Q36.00 3.98 35.67 3.70L35.67 3.70ZM43.46 3.66L43.46 3.66L43.46 3.66Q43.00 3.88 42.57 4.31L42.57 4.31L42.57 4.31Q42.38 3.75 41.92 3.58L41.92 3.58L40.66 4.68L40.74 4.97L40.74 4.97Q41.27 4.76 41.17 7.83L41.17 7.83L41.17 7.83Q40.99 10.55 41.13 11.27L41.13 11.27L41.13 11.27Q41.28 11.99 42.33 12.52L42.33 12.52L42.33 12.52Q43.38 13.06 44.42 12.41L44.42 12.41L44.42 12.41Q45.46 11.76 45.84 11.30L45.84 11.30L45.84 11.30Q46.22 10.83 46.35 10.43L46.35 10.43L46.35 10.43Q46.48 10.03 46.50 9.41L46.50 9.41L46.50 9.41Q46.53 8.78 46.13 7.99L46.13 7.99L46.13 7.99Q45.73 7.21 44.41 7.03L44.41 7.03L44.41 7.03Q45.83 6.01 45.63 4.96L45.63 4.96L45.63 4.96Q45.43 3.92 44.68 3.68L44.68 3.68L44.68 3.68Q43.92 3.44 43.46 3.66ZM43.48 4.49L43.48 4.49L43.48 4.49Q44.03 4.63 44.22 5.41L44.22 5.41L44.22 5.41Q44.41 6.19 44.00 6.96L44.00 6.96L44.00 6.96Q43.05 6.95 42.68 7.33L42.68 7.33L42.71 4.83L42.71 4.83Q42.92 4.34 43.48 4.49ZM42.66 8.32L42.66 8.32Q42.92 7.64 43.52 7.57L43.52 7.57L43.52 7.57Q44.11 7.51 44.65 8.29L44.65 8.29L44.65 8.29Q45.19 9.06 45.10 9.92L45.10 9.92L45.10 9.92Q45.01 10.78 44.60 11.31L44.60 11.31L44.60 11.31Q44.19 11.84 43.61 11.55L43.61 11.55L43.61 11.55Q43.04 11.27 42.76 10.63L42.76 10.63L42.76 10.63Q42.49 10.00 42.66 8.32L42.66 8.32ZM49.33 6.49L49.33 6.49Q48.18 7.24 47.70 7.80L47.70 7.80L47.70 7.80Q47.23 8.35 47.04 8.92L47.04 8.92L47.04 8.92Q46.85 9.48 46.97 10.33L46.97 10.33L46.97 10.33Q47.10 11.18 47.97 11.96L47.97 11.96L47.97 11.96Q48.84 12.75 49.36 12.75L49.36 12.75L49.36 12.75Q49.88 12.76 50.99 11.74L50.99 11.74L50.99 11.74Q51.42 11.35 51.74 10.91L51.74 10.91L51.74 10.91Q52.07 10.47 52.22 9.67L52.22 9.67L52.22 9.67Q52.38 8.87 51.96 7.90L51.96 7.90L51.96 7.90Q50.93 6.30 49.33 6.49L49.33 6.49ZM49.10 7.70L49.10 7.70L49.10 7.70Q49.97 7.83 50.48 8.81L50.48 8.81L50.48 8.81Q50.98 9.79 50.81 10.78L50.81 10.78L50.81 10.78Q50.65 11.76 49.77 11.29L49.77 11.29L49.77 11.29Q48.88 10.81 48.44 10.00L48.44 10.00L48.44 10.00Q48.00 9.19 48.11 8.37L48.11 8.37L48.11 8.37Q48.23 7.56 49.10 7.70ZM54.27 6.42L52.60 7.64L52.75 7.87L52.75 7.87Q53.26 7.56 53.20 8.50L53.20 8.50L53.20 8.50Q53.14 11.46 53.22 11.91L53.22 11.91L53.22 11.91Q53.31 12.37 53.89 12.71L53.89 12.71L55.34 11.46L55.34 11.29L55.34 11.29Q54.88 11.40 54.76 10.78L54.76 10.78L54.76 10.78Q54.63 10.17 54.71 8.27L54.71 8.27L54.71 8.27Q55.58 7.48 56.19 7.71L56.19 7.71L56.19 7.71Q56.79 7.94 56.79 9.37L56.79 9.37L56.79 9.37Q56.75 11.42 56.80 11.91L56.80 11.91L56.80 11.91Q56.85 12.40 57.39 12.76L57.39 12.76L58.81 11.49L58.78 11.33L58.78 11.33Q58.42 11.44 58.30 10.81L58.30 10.81L58.30 10.81Q58.19 10.18 58.26 8.74L58.26 8.74L58.26 8.74Q58.30 7.86 58.11 7.33L58.11 7.33L58.11 7.33Q57.92 6.80 57.30 6.56L57.30 6.56L57.30 6.56Q56.68 6.31 56.14 6.57L56.14 6.57L56.14 6.57Q55.61 6.83 55.27 7.12L55.27 7.12L55.27 7.12Q54.92 7.40 54.74 7.62L54.74 7.62L54.74 7.62Q54.80 6.77 54.27 6.42L54.27 6.42ZM60.68 6.42L59.00 7.64L59.16 7.87L59.16 7.87Q59.66 7.56 59.61 8.50L59.61 8.50L59.61 8.50Q59.54 11.46 59.63 11.91L59.63 11.91L59.63 11.91Q59.72 12.37 60.29 12.71L60.29 12.71L61.74 11.46L61.74 11.29L61.74 11.29Q61.28 11.40 61.16 10.78L61.16 10.78L61.16 10.78Q61.04 10.17 61.11 8.27L61.11 8.27L61.11 8.27Q61.99 7.48 62.59 7.71L62.59 7.71L62.59 7.71Q63.20 7.94 63.19 9.37L63.19 9.37L63.19 9.37Q63.16 11.42 63.21 11.91L63.21 11.91L63.21 11.91Q63.25 12.40 63.79 12.76L63.79 12.76L65.21 11.49L65.18 11.33L65.18 11.33Q64.83 11.44 64.71 10.81L64.71 10.81L64.71 10.81Q64.59 10.18 64.66 8.74L64.66 8.74L64.66 8.74Q64.71 7.86 64.52 7.33L64.52 7.33L64.52 7.33Q64.33 6.80 63.70 6.56L63.70 6.56L63.70 6.56Q63.08 6.31 62.55 6.57L62.55 6.57L62.55 6.57Q62.02 6.83 61.67 7.12L61.67 7.12L61.67 7.12Q61.33 7.40 61.14 7.62L61.14 7.62L61.14 7.62Q61.20 6.77 60.68 6.42L60.68 6.42ZM68.57 6.60L68.57 6.60L68.57 6.60Q67.50 6.43 66.58 7.26L66.58 7.26L66.58 7.26Q65.65 8.09 65.39 9.20L65.39 9.20L65.39 9.20Q65.13 10.31 65.55 11.26L65.55 11.26L65.55 11.26Q65.97 12.22 67.11 12.62L67.11 12.62L67.11 12.62Q68.04 12.93 69.04 12.18L69.04 12.18L69.04 12.18Q70.05 11.43 70.36 10.77L70.36 10.77L70.16 10.61L70.16 10.61Q68.78 11.56 67.96 11.24L67.96 11.24L67.96 11.24Q67.14 10.92 67.00 10.51L67.00 10.51L68.48 9.54L68.48 9.54Q69.92 8.65 69.78 7.70L69.78 7.70L69.78 7.70Q69.64 6.76 68.57 6.60ZM66.48 8.64L66.48 8.64L66.48 8.64Q66.47 8.14 66.84 7.78L66.84 7.78L66.84 7.78Q67.21 7.41 67.82 7.78L67.82 7.78L67.82 7.78Q68.43 8.15 68.33 8.76L68.33 8.76L68.33 8.76Q68.24 9.37 66.79 10.14L66.79 10.14L66.79 10.14Q66.64 9.80 66.57 9.47L66.57 9.47L66.57 9.47Q66.50 9.14 66.48 8.64ZM75.02 3.62L73.21 5.38L73.38 5.71L73.38 5.71Q73.93 5.26 73.87 6.61L73.87 6.61L73.87 6.61Q73.80 10.88 73.90 11.54L73.90 11.54L73.90 11.54Q73.99 12.20 74.61 12.69L74.61 12.69L76.16 11.24L76.16 11.01L76.16 11.01Q75.67 11.15 75.54 10.08L75.54 10.08L75.54 10.08Q75.42 9.02 75.48 6.68L75.48 6.68L78.03 10.71L78.03 10.71Q78.03 11.06 78.10 11.64L78.10 11.64L78.10 11.64Q78.17 12.22 78.65 12.70L78.65 12.70L80.15 11.16L80.12 10.93L80.12 10.93Q79.73 11.09 79.62 10.04L79.62 10.04L79.62 10.04Q79.52 8.98 79.59 6.90L79.59 6.90L79.59 5.97L79.60 4.63L79.60 4.63Q79.60 4.01 79.17 3.54L79.17 3.54L77.49 5.24L77.59 5.56L77.59 5.56Q78.09 5.31 78.03 6.16L78.03 6.16L78.02 8.98L75.47 4.84L75.47 4.84Q75.60 4.14 75.02 3.62L75.02 3.62ZM82.87 6.49L82.87 6.49Q81.72 7.24 81.24 7.80L81.24 7.80L81.24 7.80Q80.77 8.35 80.58 8.92L80.58 8.92L80.58 8.92Q80.38 9.48 80.51 10.33L80.51 10.33L80.51 10.33Q80.64 11.18 81.50 11.96L81.50 11.96L81.50 11.96Q82.37 12.75 82.89 12.75L82.89 12.75L82.89 12.75Q83.41 12.76 84.53 11.74L84.53 11.74L84.53 11.74Q84.96 11.35 85.28 10.91L85.28 10.91L85.28 10.91Q85.61 10.47 85.76 9.67L85.76 9.67L85.76 9.67Q85.91 8.87 85.50 7.90L85.50 7.90L85.50 7.90Q84.46 6.30 82.87 6.49L82.87 6.49ZM82.64 7.70L82.64 7.70L82.64 7.70Q83.51 7.83 84.01 8.81L84.01 8.81L84.01 8.81Q84.52 9.79 84.35 10.78L84.35 10.78L84.35 10.78Q84.18 11.76 83.30 11.29L83.30 11.29L83.30 11.29Q82.42 10.81 81.98 10.00L81.98 10.00L81.98 10.00Q81.53 9.19 81.65 8.37L81.65 8.37L81.65 8.37Q81.77 7.56 82.64 7.70ZM88.31 3.70L87.07 4.68L87.07 4.68Q87.47 4.64 87.29 6.90L87.29 6.90L86.85 6.91L85.87 8.26L86.08 8.45L86.08 8.45Q86.40 8.09 87.25 8.13L87.25 8.13L87.25 8.13Q87.13 11.08 87.26 11.67L87.26 11.67L87.26 11.67Q87.38 12.25 88.06 12.72L88.06 12.72L88.06 12.72Q89.00 12.24 90.31 11.16L90.31 11.16L90.19 10.63L90.19 10.63Q88.72 11.38 88.63 10.75L88.63 10.75L88.63 10.75Q88.55 10.13 88.61 8.13L88.61 8.13L89.47 8.13L90.36 7.02L90.31 6.88L88.64 6.86L88.72 4.57L88.72 4.57Q88.64 3.98 88.31 3.70L88.31 3.70ZM93.87 6.60L93.87 6.60L93.87 6.60Q92.80 6.43 91.88 7.26L91.88 7.26L91.88 7.26Q90.95 8.09 90.69 9.20L90.69 9.20L90.69 9.20Q90.43 10.31 90.85 11.26L90.85 11.26L90.85 11.26Q91.27 12.22 92.41 12.62L92.41 12.62L92.41 12.62Q93.34 12.93 94.34 12.18L94.34 12.18L94.34 12.18Q95.35 11.43 95.66 10.77L95.66 10.77L95.46 10.61L95.46 10.61Q94.08 11.56 93.26 11.24L93.26 11.24L93.26 11.24Q92.44 10.92 92.30 10.51L92.30 10.51L93.78 9.54L93.78 9.54Q95.22 8.65 95.08 7.70L95.08 7.70L95.08 7.70Q94.94 6.76 93.87 6.60ZM91.78 8.64L91.78 8.64L91.78 8.64Q91.77 8.14 92.14 7.78L92.14 7.78L92.14 7.78Q92.51 7.41 93.12 7.78L93.12 7.78L93.12 7.78Q93.73 8.15 93.63 8.76L93.63 8.76L93.63 8.76Q93.54 9.37 92.09 10.14L92.09 10.14L92.09 10.14Q91.94 9.80 91.87 9.47L91.87 9.47L91.87 9.47Q91.80 9.14 91.78 8.64Z"></path></g><defs data-v-fde0c5aa=""><!----></defs><g data-v-fde0c5aa="" id="ffe441b8-ae0e-4b7e-bc10-dceeeeffff76" stroke="none" fill="#FFC096" transform="matrix(0.494090558594704,0,0,0.494090558594704,40.19269532550896,122.86207550374412)"><path d="M100.39 35L50 14.85-.39 35 18 42.35v20.23a12.025 12.025 0 0 0 8.11 11.36l10.29 3.52a42.24 42.24 0 0 0 27.2 0l10.29-3.52A12.025 12.025 0 0 0 82 62.58V42.35L100.39 35zM50 19.15L89.61 35 50 50.85 10.39 35 50 19.15zm28 43.43a8.017 8.017 0 0 1-5.41 7.57l-10.28 3.52a38.161 38.161 0 0 1-24.62 0l-10.28-3.52A8.017 8.017 0 0 1 22 62.58V44l28 11.2L78 44v18.58z"></path><path d="M70 52h4v9.58h-4z"></path><path d="M50 31c-3 0-5.33 1.72-5.33 4v.1L27 42.68v37.61A7.016 7.016 0 0 0 22 87v8h14v-8a7.016 7.016 0 0 0-5-6.71v-35l16.14-6.89A6.79 6.79 0 0 0 50 39c3 0 5.33-1.72 5.33-4 0-2.28-2.33-4-5.33-4zM32 87v4h-6v-4c0-1.646 1.354-3 3-3s3 1.354 3 3z"></path></g><defs data-v-fde0c5aa=""><!----></defs><g data-v-fde0c5aa="" id="f67a4596-fe98-4a5f-949b-05dadf3fc563" fill="#FFC096" transform="matrix(0.7853541749865955,0,0,0.7853541749865955,102.6842207321459,155.29331859439023)"><path d="M3.08 3.61L3.08 3.61L3.08 3.61Q2.50 3.75 2.01 4.18L2.01 4.18L2.01 4.18Q1.52 4.60 1.18 5.07L1.18 5.07L1.18 5.07Q0.83 5.54 0.82 6.25L0.82 6.25L0.82 6.25Q0.80 6.97 1.27 7.51L1.27 7.51L1.27 7.51Q1.74 8.06 2.91 8.61L2.91 8.61L2.91 8.61Q4.07 9.16 4.58 9.92L4.58 9.92L4.58 9.92Q5.09 10.68 4.65 11.10L4.65 11.10L4.65 11.10Q4.20 11.52 3.54 11.39L3.54 11.39L3.54 11.39Q2.88 11.25 2.29 10.89L2.29 10.89L2.29 10.89Q1.70 10.52 1.42 9.88L1.42 9.88L1.42 9.88Q1.14 9.24 1.45 8.81L1.45 8.81L1.28 8.68L0.17 9.95L0.17 9.95Q0.04 10.49 0.48 11.18L0.48 11.18L0.48 11.18Q0.91 11.87 1.69 12.33L1.69 12.33L1.69 12.33Q2.46 12.79 3.40 12.67L3.40 12.67L3.40 12.67Q4.33 12.54 5.17 11.37L5.17 11.37L5.17 11.37Q6.00 10.20 5.98 9.49L5.98 9.49L5.98 9.49Q5.97 8.78 5.48 8.17L5.48 8.17L5.48 8.17Q4.98 7.56 3.57 6.97L3.57 6.97L3.57 6.97Q2.15 6.38 1.99 5.74L1.99 5.74L1.99 5.74Q1.82 5.09 2.40 4.92L2.40 4.92L2.40 4.92Q2.97 4.76 3.60 5.10L3.60 5.10L3.60 5.10Q4.22 5.43 4.03 5.97L4.03 5.97L4.13 6.13L5.20 4.93L5.20 4.93Q5.09 4.23 4.38 3.85L4.38 3.85L4.38 3.85Q3.66 3.47 3.08 3.61ZM9.43 6.60L9.43 6.60L9.43 6.60Q8.37 6.43 7.44 7.26L7.44 7.26L7.44 7.26Q6.51 8.09 6.25 9.20L6.25 9.20L6.25 9.20Q5.99 10.31 6.41 11.26L6.41 11.26L6.41 11.26Q6.83 12.22 7.97 12.62L7.97 12.62L7.97 12.62Q8.90 12.93 9.91 12.18L9.91 12.18L9.91 12.18Q10.91 11.43 11.22 10.77L11.22 10.77L11.02 10.61L11.02 10.61Q9.64 11.56 8.82 11.24L8.82 11.24L8.82 11.24Q8.00 10.92 7.86 10.51L7.86 10.51L9.34 9.54L9.34 9.54Q10.79 8.65 10.64 7.70L10.64 7.70L10.64 7.70Q10.50 6.76 9.43 6.60ZM7.35 8.64L7.35 8.64L7.35 8.64Q7.33 8.14 7.70 7.78L7.70 7.78L7.70 7.78Q8.07 7.41 8.68 7.78L8.68 7.78L8.68 7.78Q9.29 8.15 9.19 8.76L9.19 8.76L9.19 8.76Q9.10 9.37 7.66 10.14L7.66 10.14L7.66 10.14Q7.50 9.80 7.43 9.47L7.43 9.47L7.43 9.47Q7.36 9.14 7.35 8.64ZM13.21 6.42L11.53 7.64L11.69 7.87L11.69 7.87Q12.20 7.56 12.14 8.50L12.14 8.50L12.14 8.50Q12.07 11.46 12.16 11.91L12.16 11.91L12.16 11.91Q12.25 12.37 12.82 12.71L12.82 12.71L14.27 11.46L14.27 11.29L14.27 11.29Q13.82 11.40 13.69 10.78L13.69 10.78L13.69 10.78Q13.57 10.17 13.64 8.27L13.64 8.27L13.64 8.27Q14.52 7.48 15.18 8.43L15.18 8.43L16.42 7.29L16.42 7.29Q15.64 6.25 15.01 6.49L15.01 6.49L15.01 6.49Q14.38 6.72 13.67 7.62L13.67 7.62L13.67 7.62Q13.73 6.77 13.21 6.42L13.21 6.42ZM19.09 7.64L19.09 7.64L19.22 7.79L19.22 7.79Q20.01 7.18 20.67 8.09L20.67 8.09L20.67 8.09Q21.33 9.00 21.29 9.94L21.29 9.94L21.29 9.94Q21.25 10.88 20.65 11.44L20.65 11.44L20.65 11.44Q20.07 11.50 17.79 6.84L17.79 6.84L17.79 6.84Q17.64 6.43 17.25 6.68L17.25 6.68L15.93 7.96L15.99 8.08L15.99 8.08Q16.38 7.77 16.78 8.43L16.78 8.43L18.82 12.24L18.82 12.24Q19.41 12.98 20.00 12.54L20.00 12.54L20.00 12.54Q20.59 12.09 21.09 11.52L21.09 11.52L21.09 11.52Q21.59 10.94 22.26 9.86L22.26 9.86L22.26 9.86Q22.93 8.78 22.37 7.68L22.37 7.68L22.37 7.68Q21.82 6.59 21.00 6.31L21.00 6.31L21.00 6.31Q20.19 6.03 19.09 7.64ZM24.24 3.68L22.87 4.86L22.87 4.86Q23.51 5.30 23.84 5.91L23.84 5.91L23.84 5.91Q24.99 5.15 25.13 4.96L25.13 4.96L25.13 4.96Q25.27 4.76 25.05 4.31L25.05 4.31L25.05 4.31Q24.84 3.86 24.24 3.68L24.24 3.68ZM23.08 7.76L23.08 7.76Q23.67 7.43 23.47 9.23L23.47 9.23L23.47 9.23Q23.43 11.37 23.48 11.88L23.48 11.88L23.48 11.88Q23.53 12.39 24.09 12.72L24.09 12.72L25.45 11.45L25.46 11.27L25.46 11.27Q25.08 11.29 25.00 10.76L25.00 10.76L25.00 10.76Q24.91 10.23 24.95 8.94L24.95 8.94L24.95 8.94Q24.99 7.65 24.97 7.25L24.97 7.25L24.97 7.25Q24.95 6.85 24.60 6.45L24.60 6.45L22.98 7.57L23.08 7.76ZM28.69 6.62L28.69 6.62L28.69 6.62Q28.31 6.77 27.97 6.99L27.97 6.99L27.97 6.99Q27.64 7.21 27.28 7.49L27.28 7.49L27.28 7.49Q24.83 9.38 26.43 11.66L26.43 11.66L26.43 11.66Q26.88 12.21 27.34 12.45L27.34 12.45L27.34 12.45Q27.81 12.69 28.45 12.70L28.45 12.70L28.45 12.70Q29.10 12.70 29.78 12.07L29.78 12.07L29.78 12.07Q30.46 11.44 30.91 10.79L30.91 10.79L30.69 10.60L30.69 10.60Q30.52 10.82 30.24 11.07L30.24 11.07L30.24 11.07Q29.97 11.32 29.53 11.32L29.53 11.32L29.53 11.32Q29.10 11.33 28.59 10.99L28.59 10.99L28.59 10.99Q27.06 10.14 27.39 8.37L27.39 8.37L27.39 8.37Q27.58 7.62 28.43 7.85L28.43 7.85L28.43 7.85Q29.16 8.12 29.44 8.98L29.44 8.98L30.78 7.93L30.78 7.93Q30.76 7.33 30.33 7.00L30.33 7.00L30.33 7.00Q29.91 6.66 29.49 6.56L29.49 6.56L29.49 6.56Q29.07 6.47 28.69 6.62ZM34.41 6.60L34.41 6.60L34.41 6.60Q33.35 6.43 32.42 7.26L32.42 7.26L32.42 7.26Q31.49 8.09 31.23 9.20L31.23 9.20L31.23 9.20Q30.97 10.31 31.39 11.26L31.39 11.26L31.39 11.26Q31.81 12.22 32.95 12.62L32.95 12.62L32.95 12.62Q33.88 12.93 34.88 12.18L34.88 12.18L34.88 12.18Q35.89 11.43 36.20 10.77L36.20 10.77L36.00 10.61L36.00 10.61Q34.62 11.56 33.80 11.24L33.80 11.24L33.80 11.24Q32.98 10.92 32.84 10.51L32.84 10.51L34.32 9.54L34.32 9.54Q35.77 8.65 35.62 7.70L35.62 7.70L35.62 7.70Q35.48 6.76 34.41 6.60ZM32.32 8.64L32.32 8.64L32.32 8.64Q32.31 8.14 32.68 7.78L32.68 7.78L32.68 7.78Q33.05 7.41 33.66 7.78L33.66 7.78L33.66 7.78Q34.27 8.15 34.17 8.76L34.17 8.76L34.17 8.76Q34.08 9.37 32.63 10.14L32.63 10.14L32.63 10.14Q32.48 9.80 32.41 9.47L32.41 9.47L32.41 9.47Q32.34 9.14 32.32 8.64ZM44.13 2.93L44.13 2.93L42.80 3.85L42.80 3.85Q43.12 4.42 43.08 6.77L43.08 6.77L43.08 6.77Q42.58 6.51 42.15 6.55L42.15 6.55L42.15 6.55Q41.72 6.58 41.19 6.94L41.19 6.94L41.19 6.94Q40.65 7.30 40.03 7.91L40.03 7.91L40.03 7.91Q39.42 8.51 39.20 9.61L39.20 9.61L39.20 9.61Q38.99 10.71 39.62 11.71L39.62 11.71L39.62 11.71Q40.26 12.71 41.00 12.75L41.00 12.75L41.00 12.75Q41.73 12.78 43.19 11.28L43.19 11.28L43.19 11.28Q43.19 12.25 44.04 12.77L44.04 12.77L45.23 11.76L45.23 11.76Q44.51 11.37 44.63 7.21L44.63 7.21L44.63 7.21Q44.74 3.04 44.13 2.93ZM40.72 7.93L40.72 7.93Q41.79 7.84 42.21 8.83L42.21 8.83L43.11 8.05L43.11 8.45L43.13 8.62L43.13 10.73L43.05 10.76L43.05 10.76Q42.86 11.18 42.15 11.23L42.15 11.23L42.15 11.23Q41.44 11.29 40.87 10.33L40.87 10.33L40.87 10.33Q40.29 9.38 40.72 7.93L40.72 7.93ZM48.71 6.60L48.71 6.60L48.71 6.60Q47.65 6.43 46.72 7.26L46.72 7.26L46.72 7.26Q45.79 8.09 45.53 9.20L45.53 9.20L45.53 9.20Q45.27 10.31 45.69 11.26L45.69 11.26L45.69 11.26Q46.11 12.22 47.25 12.62L47.25 12.62L47.25 12.62Q48.18 12.93 49.18 12.18L49.18 12.18L49.18 12.18Q50.19 11.43 50.50 10.77L50.50 10.77L50.30 10.61L50.30 10.61Q48.92 11.56 48.10 11.24L48.10 11.24L48.10 11.24Q47.28 10.92 47.14 10.51L47.14 10.51L48.62 9.54L48.62 9.54Q50.07 8.65 49.92 7.70L49.92 7.70L49.92 7.70Q49.78 6.76 48.71 6.60ZM46.62 8.64L46.62 8.64L46.62 8.64Q46.61 8.14 46.98 7.78L46.98 7.78L46.98 7.78Q47.35 7.41 47.96 7.78L47.96 7.78L47.96 7.78Q48.57 8.15 48.47 8.76L48.47 8.76L48.47 8.76Q48.38 9.37 46.94 10.14L46.94 10.14L46.94 10.14Q46.78 9.80 46.71 9.47L46.71 9.47L46.71 9.47Q46.64 9.14 46.62 8.64ZM58.43 2.93L58.43 2.93L57.10 3.85L57.10 3.85Q57.42 4.42 57.38 6.77L57.38 6.77L57.38 6.77Q56.88 6.51 56.45 6.55L56.45 6.55L56.45 6.55Q56.02 6.58 55.49 6.94L55.49 6.94L55.49 6.94Q54.95 7.30 54.34 7.91L54.34 7.91L54.34 7.91Q53.72 8.51 53.50 9.61L53.50 9.61L53.50 9.61Q53.29 10.71 53.93 11.71L53.93 11.71L53.93 11.71Q54.56 12.71 55.30 12.75L55.30 12.75L55.30 12.75Q56.03 12.78 57.49 11.28L57.49 11.28L57.49 11.28Q57.49 12.25 58.34 12.77L58.34 12.77L59.53 11.76L59.53 11.76Q58.81 11.37 58.93 7.21L58.93 7.21L58.93 7.21Q59.04 3.04 58.43 2.93ZM55.02 7.93L55.02 7.93Q56.09 7.84 56.51 8.83L56.51 8.83L57.41 8.05L57.41 8.45L57.44 8.62L57.44 10.73L57.35 10.76L57.35 10.76Q57.16 11.18 56.45 11.23L56.45 11.23L56.45 11.23Q55.74 11.29 55.17 10.33L55.17 10.33L55.17 10.33Q54.59 9.38 55.02 7.93L55.02 7.93ZM63.01 6.60L63.01 6.60L63.01 6.60Q61.95 6.43 61.02 7.26L61.02 7.26L61.02 7.26Q60.09 8.09 59.83 9.20L59.83 9.20L59.83 9.20Q59.57 10.31 59.99 11.26L59.99 11.26L59.99 11.26Q60.41 12.22 61.55 12.62L61.55 12.62L61.55 12.62Q62.48 12.93 63.49 12.18L63.49 12.18L63.49 12.18Q64.49 11.43 64.80 10.77L64.80 10.77L64.60 10.61L64.60 10.61Q63.22 11.56 62.40 11.24L62.40 11.24L62.40 11.24Q61.58 10.92 61.44 10.51L61.44 10.51L62.92 9.54L62.92 9.54Q64.37 8.65 64.22 7.70L64.22 7.70L64.22 7.70Q64.08 6.76 63.01 6.60ZM60.93 8.64L60.93 8.64L60.93 8.64Q60.91 8.14 61.28 7.78L61.28 7.78L61.28 7.78Q61.65 7.41 62.26 7.78L62.26 7.78L62.26 7.78Q62.87 8.15 62.77 8.76L62.77 8.76L62.77 8.76Q62.68 9.37 61.24 10.14L61.24 10.14L61.24 10.14Q61.08 9.80 61.01 9.47L61.01 9.47L61.01 9.47Q60.94 9.14 60.93 8.64ZM67.89 7.64L67.89 7.64L68.02 7.79L68.02 7.79Q68.82 7.18 69.48 8.09L69.48 8.09L69.48 8.09Q70.14 9.00 70.10 9.94L70.10 9.94L70.10 9.94Q70.06 10.88 69.46 11.44L69.46 11.44L69.46 11.44Q68.88 11.50 66.60 6.84L66.60 6.84L66.60 6.84Q66.45 6.43 66.06 6.68L66.06 6.68L64.74 7.96L64.80 8.08L64.80 8.08Q65.19 7.77 65.58 8.43L65.58 8.43L67.63 12.24L67.63 12.24Q68.22 12.98 68.81 12.54L68.81 12.54L68.81 12.54Q69.40 12.09 69.90 11.52L69.90 11.52L69.90 11.52Q70.40 10.94 71.07 9.86L71.07 9.86L71.07 9.86Q71.74 8.78 71.18 7.68L71.18 7.68L71.18 7.68Q70.63 6.59 69.81 6.31L69.81 6.31L69.81 6.31Q69.00 6.03 67.89 7.64ZM74.20 6.49L74.20 6.49Q73.05 7.24 72.57 7.80L72.57 7.80L72.57 7.80Q72.10 8.35 71.91 8.92L71.91 8.92L71.91 8.92Q71.72 9.48 71.84 10.33L71.84 10.33L71.84 10.33Q71.97 11.18 72.84 11.96L72.84 11.96L72.84 11.96Q73.71 12.75 74.22 12.75L74.22 12.75L74.22 12.75Q74.74 12.76 75.86 11.74L75.86 11.74L75.86 11.74Q76.29 11.35 76.61 10.91L76.61 10.91L76.61 10.91Q76.94 10.47 77.09 9.67L77.09 9.67L77.09 9.67Q77.25 8.87 76.83 7.90L76.83 7.90L76.83 7.90Q75.80 6.30 74.20 6.49L74.20 6.49ZM73.97 7.70L73.97 7.70L73.97 7.70Q74.84 7.83 75.35 8.81L75.35 8.81L75.35 8.81Q75.85 9.79 75.68 10.78L75.68 10.78L75.68 10.78Q75.52 11.76 74.63 11.29L74.63 11.29L74.63 11.29Q73.75 10.81 73.31 10.00L73.31 10.00L73.31 10.00Q72.86 9.19 72.98 8.37L72.98 8.37L72.98 8.37Q73.10 7.56 73.97 7.70ZM78.74 3.68L77.37 4.86L77.37 4.86Q78.00 5.30 78.33 5.91L78.33 5.91L78.33 5.91Q79.48 5.15 79.62 4.96L79.62 4.96L79.62 4.96Q79.76 4.76 79.55 4.31L79.55 4.31L79.55 4.31Q79.34 3.86 78.74 3.68L78.74 3.68ZM77.58 7.76L77.58 7.76Q78.16 7.43 77.96 9.23L77.96 9.23L77.96 9.23Q77.93 11.37 77.98 11.88L77.98 11.88L77.98 11.88Q78.03 12.39 78.59 12.72L78.59 12.72L79.95 11.45L79.95 11.27L79.95 11.27Q79.58 11.29 79.49 10.76L79.49 10.76L79.49 10.76Q79.41 10.23 79.44 8.94L79.44 8.94L79.44 8.94Q79.48 7.65 79.46 7.25L79.46 7.25L79.46 7.25Q79.45 6.85 79.09 6.45L79.09 6.45L77.47 7.57L77.58 7.76ZM82.04 6.42L80.36 7.64L80.52 7.87L80.52 7.87Q81.03 7.56 80.97 8.50L80.97 8.50L80.97 8.50Q80.90 11.46 80.99 11.91L80.99 11.91L80.99 11.91Q81.08 12.37 81.66 12.71L81.66 12.71L83.10 11.46L83.10 11.29L83.10 11.29Q82.65 11.40 82.52 10.78L82.52 10.78L82.52 10.78Q82.40 10.17 82.48 8.27L82.48 8.27L82.48 8.27Q83.35 7.48 84.01 8.43L84.01 8.43L85.25 7.29L85.25 7.29Q84.47 6.25 83.84 6.49L83.84 6.49L83.84 6.49Q83.21 6.72 82.50 7.62L82.50 7.62L82.50 7.62Q82.56 6.77 82.04 6.42L82.04 6.42ZM92.70 12.78L94.46 11.53L94.29 11.20L94.29 11.20Q93.74 11.66 93.76 9.74L93.76 9.74L93.76 9.74Q93.83 5.43 93.73 4.76L93.73 4.76L93.73 4.76Q93.64 4.10 93.11 3.62L93.11 3.62L91.61 4.74L91.61 4.98L91.61 4.98Q92.10 4.83 92.18 5.22L92.18 5.22L92.18 5.22Q92.36 7.16 92.23 10.08L92.23 10.08L92.23 10.08Q91.28 11.25 90.62 10.91L90.62 10.91L90.62 10.91Q89.97 10.58 89.97 8.48L89.97 8.48L89.97 8.48Q90.02 5.50 89.96 4.79L89.96 4.79L89.96 4.79Q89.91 4.07 89.33 3.55L89.33 3.55L87.85 4.73L87.88 4.96L87.88 4.96Q88.39 4.84 88.46 5.24L88.46 5.24L88.48 9.38L88.48 9.38Q88.43 10.66 88.64 11.44L88.64 11.44L88.64 11.44Q88.85 12.21 89.47 12.58L89.47 12.58L89.47 12.58Q90.10 12.95 90.68 12.57L90.68 12.57L90.68 12.57Q91.25 12.19 91.63 11.77L91.63 11.77L91.63 11.77Q92.00 11.35 92.20 11.04L92.20 11.04L92.20 11.04Q92.13 12.26 92.70 12.78L92.70 12.78ZM96.47 6.42L94.79 7.64L94.95 7.87L94.95 7.87Q95.46 7.56 95.40 8.50L95.40 8.50L95.40 8.50Q95.33 11.46 95.42 11.91L95.42 11.91L95.42 11.91Q95.51 12.37 96.09 12.71L96.09 12.71L97.54 11.46L97.54 11.29L97.54 11.29Q97.08 11.40 96.95 10.78L96.95 10.78L96.95 10.78Q96.83 10.17 96.91 8.27L96.91 8.27L96.91 8.27Q97.78 7.48 98.39 7.71L98.39 7.71L98.39 7.71Q98.99 7.94 98.98 9.37L98.98 9.37L98.98 9.37Q98.95 11.42 99.00 11.91L99.00 11.91L99.00 11.91Q99.05 12.40 99.59 12.76L99.59 12.76L101.01 11.49L100.97 11.33L100.97 11.33Q100.62 11.44 100.50 10.81L100.50 10.81L100.50 10.81Q100.39 10.18 100.45 8.74L100.45 8.74L100.45 8.74Q100.50 7.86 100.31 7.33L100.31 7.33L100.31 7.33Q100.12 6.80 99.50 6.56L99.50 6.56L99.50 6.56Q98.88 6.31 98.34 6.57L98.34 6.57L98.34 6.57Q97.81 6.83 97.46 7.12L97.46 7.12L97.46 7.12Q97.12 7.40 96.93 7.62L96.93 7.62L96.93 7.62Q97.00 6.77 96.47 6.42L96.47 6.42ZM102.47 3.68L101.10 4.86L101.10 4.86Q101.74 5.30 102.07 5.91L102.07 5.91L102.07 5.91Q103.22 5.15 103.36 4.96L103.36 4.96L103.36 4.96Q103.50 4.76 103.28 4.31L103.28 4.31L103.28 4.31Q103.07 3.86 102.47 3.68L102.47 3.68ZM101.32 7.76L101.32 7.76Q101.90 7.43 101.70 9.23L101.70 9.23L101.70 9.23Q101.66 11.37 101.71 11.88L101.71 11.88L101.71 11.88Q101.76 12.39 102.32 12.72L102.32 12.72L103.68 11.45L103.69 11.27L103.69 11.27Q103.31 11.29 103.23 10.76L103.23 10.76L103.23 10.76Q103.14 10.23 103.18 8.94L103.18 8.94L103.18 8.94Q103.22 7.65 103.20 7.25L103.20 7.25L103.20 7.25Q103.18 6.85 102.83 6.45L102.83 6.45L101.21 7.57L101.32 7.76ZM106.88 7.64L106.88 7.64L107.01 7.79L107.01 7.79Q107.80 7.18 108.46 8.09L108.46 8.09L108.46 8.09Q109.12 9.00 109.08 9.94L109.08 9.94L109.08 9.94Q109.05 10.88 108.45 11.44L108.45 11.44L108.45 11.44Q107.86 11.50 105.59 6.84L105.59 6.84L105.59 6.84Q105.43 6.43 105.04 6.68L105.04 6.68L103.73 7.96L103.78 8.08L103.78 8.08Q104.17 7.77 104.57 8.43L104.57 8.43L106.61 12.24L106.61 12.24Q107.20 12.98 107.79 12.54L107.79 12.54L107.79 12.54Q108.38 12.09 108.89 11.52L108.89 11.52L108.89 11.52Q109.39 10.94 110.06 9.86L110.06 9.86L110.06 9.86Q110.72 8.78 110.17 7.68L110.17 7.68L110.17 7.68Q109.61 6.59 108.80 6.31L108.80 6.31L108.80 6.31Q107.98 6.03 106.88 7.64ZM113.93 6.60L113.93 6.60L113.93 6.60Q112.86 6.43 111.93 7.26L111.93 7.26L111.93 7.26Q111.00 8.09 110.74 9.20L110.74 9.20L110.74 9.20Q110.48 10.31 110.90 11.26L110.90 11.26L110.90 11.26Q111.32 12.22 112.46 12.62L112.46 12.62L112.46 12.62Q113.39 12.93 114.40 12.18L114.40 12.18L114.40 12.18Q115.40 11.43 115.72 10.77L115.72 10.77L115.51 10.61L115.51 10.61Q114.13 11.56 113.32 11.24L113.32 11.24L113.32 11.24Q112.50 10.92 112.36 10.51L112.36 10.51L113.84 9.54L113.84 9.54Q115.28 8.65 115.14 7.70L115.14 7.70L115.14 7.70Q114.99 6.76 113.93 6.60ZM111.84 8.64L111.84 8.64L111.84 8.64Q111.82 8.14 112.19 7.78L112.19 7.78L112.19 7.78Q112.57 7.41 113.18 7.78L113.18 7.78L113.18 7.78Q113.78 8.15 113.69 8.76L113.69 8.76L113.69 8.76Q113.59 9.37 112.15 10.14L112.15 10.14L112.15 10.14Q111.99 9.80 111.92 9.47L111.92 9.47L111.92 9.47Q111.86 9.14 111.84 8.64ZM117.70 6.42L116.03 7.64L116.18 7.87L116.18 7.87Q116.69 7.56 116.63 8.50L116.63 8.50L116.63 8.50Q116.57 11.46 116.66 11.91L116.66 11.91L116.66 11.91Q116.74 12.37 117.32 12.71L117.32 12.71L118.77 11.46L118.77 11.29L118.77 11.29Q118.31 11.40 118.19 10.78L118.19 10.78L118.19 10.78Q118.06 10.17 118.14 8.27L118.14 8.27L118.14 8.27Q119.01 7.48 119.68 8.43L119.68 8.43L120.91 7.29L120.91 7.29Q120.13 6.25 119.51 6.49L119.51 6.49L119.51 6.49Q118.88 6.72 118.17 7.62L118.17 7.62L118.17 7.62Q118.23 6.77 117.70 6.42L117.70 6.42ZM123.63 6.52L123.63 6.52L123.63 6.52Q122.92 6.63 122.47 6.92L122.47 6.92L122.47 6.92Q122.01 7.21 121.70 7.52L121.70 7.52L121.70 7.52Q121.38 7.84 121.21 8.41L121.21 8.41L121.21 8.41Q121.05 8.98 121.51 9.39L121.51 9.39L121.51 9.39Q121.96 9.80 123.01 10.02L123.01 10.02L123.01 10.02Q124.07 10.24 124.41 10.55L124.41 10.55L124.41 10.55Q124.76 10.87 124.79 11.14L124.79 11.14L124.79 11.14Q124.82 11.42 124.57 11.52L124.57 11.52L124.57 11.52Q124.32 11.61 123.81 11.54L123.81 11.54L123.81 11.54Q123.31 11.46 122.84 11.22L122.84 11.22L122.84 11.22Q122.37 10.99 122.04 10.65L122.04 10.65L122.04 10.65Q121.71 10.32 121.99 10.02L121.99 10.02L121.83 9.93L120.77 10.84L120.77 10.84Q120.65 11.20 121.05 11.67L121.05 11.67L121.05 11.67Q121.45 12.14 122.06 12.40L122.06 12.40L122.06 12.40Q122.68 12.66 123.32 12.70L123.32 12.70L123.32 12.70Q123.96 12.74 124.61 12.32L124.61 12.32L124.61 12.32Q125.25 11.90 125.55 11.35L125.55 11.35L125.55 11.35Q125.85 10.81 125.79 10.26L125.79 10.26L125.79 10.26Q125.73 9.71 125.37 9.30L125.37 9.30L125.37 9.30Q125.01 8.88 123.83 8.55L123.83 8.55L123.83 8.55Q122.65 8.22 122.46 7.84L122.46 7.84L122.46 7.84Q122.27 7.45 122.76 7.38L122.76 7.38L122.76 7.38Q123.24 7.31 123.90 7.63L123.90 7.63L123.90 7.63Q124.56 7.96 124.34 8.25L124.34 8.25L124.43 8.35L125.45 7.38L125.45 7.38Q125.34 6.92 124.84 6.67L124.84 6.67L124.84 6.67Q124.34 6.41 123.63 6.52ZM127.44 3.68L126.07 4.86L126.07 4.86Q126.70 5.30 127.03 5.91L127.03 5.91L127.03 5.91Q128.18 5.15 128.32 4.96L128.32 4.96L128.32 4.96Q128.46 4.76 128.25 4.31L128.25 4.31L128.25 4.31Q128.04 3.86 127.44 3.68L127.44 3.68ZM126.28 7.76L126.28 7.76Q126.86 7.43 126.66 9.23L126.66 9.23L126.66 9.23Q126.63 11.37 126.68 11.88L126.68 11.88L126.68 11.88Q126.72 12.39 127.29 12.72L127.29 12.72L128.65 11.45L128.65 11.27L128.65 11.27Q128.28 11.29 128.19 10.76L128.19 10.76L128.19 10.76Q128.11 10.23 128.14 8.94L128.14 8.94L128.14 8.94Q128.18 7.65 128.16 7.25L128.16 7.25L128.16 7.25Q128.15 6.85 127.79 6.45L127.79 6.45L126.17 7.57L126.28 7.76ZM131.24 3.70L130.00 4.68L130.00 4.68Q130.40 4.64 130.22 6.90L130.22 6.90L129.78 6.91L128.80 8.26L129.01 8.45L129.01 8.45Q129.33 8.09 130.18 8.13L130.18 8.13L130.18 8.13Q130.06 11.08 130.19 11.67L130.19 11.67L130.19 11.67Q130.31 12.25 130.99 12.72L130.99 12.72L130.99 12.72Q131.93 12.24 133.24 11.16L133.24 11.16L133.12 10.63L133.12 10.63Q131.65 11.38 131.56 10.75L131.56 10.75L131.56 10.75Q131.48 10.13 131.54 8.13L131.54 8.13L132.40 8.13L133.29 7.02L133.24 6.88L131.57 6.86L131.65 4.57L131.65 4.57Q131.57 3.98 131.24 3.70L131.24 3.70ZM136.74 6.49L136.74 6.49L136.74 6.49Q135.73 6.45 134.67 7.15L134.67 7.15L134.67 7.15Q133.60 7.85 134.22 9.02L134.22 9.02L135.74 8.13L135.74 8.13Q135.06 7.09 136.33 7.06L136.33 7.06L136.33 7.06Q137.59 7.03 137.43 8.76L137.43 8.76L135.22 8.80L133.52 10.71L133.52 10.71Q133.45 11.55 134.12 12.14L134.12 12.14L134.12 12.14Q134.78 12.73 135.44 12.70L135.44 12.70L135.44 12.70Q136.10 12.67 136.56 12.39L136.56 12.39L136.56 12.39Q137.03 12.10 137.48 11.57L137.48 11.57L137.48 11.57Q137.64 12.52 138.59 12.69L138.59 12.69L139.80 11.38L139.72 11.21L139.72 11.21Q139.17 11.33 139.02 10.58L139.02 10.58L139.02 8.16L139.02 8.16Q138.95 7.23 138.35 6.88L138.35 6.88L138.35 6.88Q137.74 6.53 136.74 6.49ZM134.91 9.88L137.42 9.88L137.42 11.11L137.42 11.11Q137.18 11.42 136.28 11.39L136.28 11.39L136.28 11.39Q135.39 11.35 134.66 10.12L134.66 10.12L134.91 9.88ZM141.31 3.68L139.94 4.86L139.94 4.86Q140.57 5.30 140.90 5.91L140.90 5.91L140.90 5.91Q142.05 5.15 142.19 4.96L142.19 4.96L142.19 4.96Q142.33 4.76 142.12 4.31L142.12 4.31L142.12 4.31Q141.91 3.86 141.31 3.68L141.31 3.68ZM140.15 7.76L140.15 7.76Q140.73 7.43 140.53 9.23L140.53 9.23L140.53 9.23Q140.50 11.37 140.55 11.88L140.55 11.88L140.55 11.88Q140.59 12.39 141.16 12.72L141.16 12.72L142.52 11.45L142.52 11.27L142.52 11.27Q142.15 11.29 142.06 10.76L142.06 10.76L142.06 10.76Q141.98 10.23 142.01 8.94L142.01 8.94L142.01 8.94Q142.05 7.65 142.03 7.25L142.03 7.25L142.03 7.25Q142.02 6.85 141.66 6.45L141.66 6.45L140.04 7.57L140.15 7.76ZM144.61 6.42L142.93 7.64L143.09 7.87L143.09 7.87Q143.60 7.56 143.54 8.50L143.54 8.50L143.54 8.50Q143.47 11.46 143.56 11.91L143.56 11.91L143.56 11.91Q143.65 12.37 144.22 12.71L144.22 12.71L145.67 11.46L145.67 11.29L145.67 11.29Q145.22 11.40 145.09 10.78L145.09 10.78L145.09 10.78Q144.97 10.17 145.04 8.27L145.04 8.27L145.04 8.27Q145.92 7.48 146.58 8.43L146.58 8.43L147.82 7.29L147.82 7.29Q147.04 6.25 146.41 6.49L146.41 6.49L146.41 6.49Q145.78 6.72 145.07 7.62L145.07 7.62L145.07 7.62Q145.13 6.77 144.61 6.42L144.61 6.42ZM150.87 6.60L150.87 6.60L150.87 6.60Q149.80 6.43 148.87 7.26L148.87 7.26L148.87 7.26Q147.94 8.09 147.68 9.20L147.68 9.20L147.68 9.20Q147.42 10.31 147.84 11.26L147.84 11.26L147.84 11.26Q148.26 12.22 149.41 12.62L149.41 12.62L149.41 12.62Q150.34 12.93 151.34 12.18L151.34 12.18L151.34 12.18Q152.35 11.43 152.66 10.77L152.66 10.77L152.46 10.61L152.46 10.61Q151.07 11.56 150.26 11.24L150.26 11.24L150.26 11.24Q149.44 10.92 149.30 10.51L149.30 10.51L150.78 9.54L150.78 9.54Q152.22 8.65 152.08 7.70L152.08 7.70L152.08 7.70Q151.94 6.76 150.87 6.60ZM148.78 8.64L148.78 8.64L148.78 8.64Q148.76 8.14 149.14 7.78L149.14 7.78L149.14 7.78Q149.51 7.41 150.12 7.78L150.12 7.78L150.12 7.78Q150.73 8.15 150.63 8.76L150.63 8.76L150.63 8.76Q150.53 9.37 149.09 10.14L149.09 10.14L149.09 10.14Q148.93 9.80 148.87 9.47L148.87 9.47L148.87 9.47Q148.80 9.14 148.78 8.64ZM158.74 6.60L158.74 6.60L158.74 6.60Q157.68 6.43 156.75 7.26L156.75 7.26L156.75 7.26Q155.82 8.09 155.56 9.20L155.56 9.20L155.56 9.20Q155.30 10.31 155.72 11.26L155.72 11.26L155.72 11.26Q156.14 12.22 157.28 12.62L157.28 12.62L157.28 12.62Q158.21 12.93 159.22 12.18L159.22 12.18L159.22 12.18Q160.22 11.43 160.54 10.77L160.54 10.77L160.33 10.61L160.33 10.61Q158.95 11.56 158.13 11.24L158.13 11.24L158.13 11.24Q157.32 10.92 157.17 10.51L157.17 10.51L158.66 9.54L158.66 9.54Q160.10 8.65 159.95 7.70L159.95 7.70L159.95 7.70Q159.81 6.76 158.74 6.60ZM156.66 8.64L156.66 8.64L156.66 8.64Q156.64 8.14 157.01 7.78L157.01 7.78L157.01 7.78Q157.38 7.41 157.99 7.78L157.99 7.78L157.99 7.78Q158.60 8.15 158.50 8.76L158.50 8.76L158.50 8.76Q158.41 9.37 156.97 10.14L156.97 10.14L156.97 10.14Q156.81 9.80 156.74 9.47L156.74 9.47L156.74 9.47Q156.67 9.14 156.66 8.64ZM163.02 3.70L161.78 4.68L161.78 4.68Q162.18 4.64 162.00 6.90L162.00 6.90L161.56 6.91L160.58 8.26L160.79 8.45L160.79 8.45Q161.11 8.09 161.96 8.13L161.96 8.13L161.96 8.13Q161.84 11.08 161.97 11.67L161.97 11.67L161.97 11.67Q162.09 12.25 162.77 12.72L162.77 12.72L162.77 12.72Q163.71 12.24 165.02 11.16L165.02 11.16L164.90 10.63L164.90 10.63Q163.43 11.38 163.34 10.75L163.34 10.75L163.34 10.75Q163.26 10.13 163.32 8.13L163.32 8.13L164.18 8.13L165.07 7.02L165.02 6.88L163.35 6.86L163.43 4.57L163.43 4.57Q163.35 3.98 163.02 3.70L163.02 3.70ZM172.07 3.54L172.07 3.54L172.07 3.54Q171.06 3.51 170.37 3.90L170.37 3.90L170.37 3.90Q169.67 4.29 168.97 5.40L168.97 5.40L168.97 5.40Q168.27 6.50 168.08 7.78L168.08 7.78L168.08 7.78Q167.89 9.06 168.23 9.99L168.23 9.99L168.23 9.99Q168.57 10.92 169.17 11.60L169.17 11.60L169.17 11.60Q169.76 12.28 170.63 12.57L170.63 12.57L170.63 12.57Q171.49 12.86 172.31 12.54L172.31 12.54L172.31 12.54Q173.12 12.22 174.02 11.03L174.02 11.03L173.73 10.75L173.73 10.75Q172.79 11.79 171.37 10.96L171.37 10.96L171.37 10.96Q169.94 10.14 169.50 8.51L169.50 8.51L169.50 8.51Q169.07 6.89 169.51 5.80L169.51 5.80L169.51 5.80Q169.96 4.71 170.98 4.69L170.98 4.69L170.98 4.69Q172.00 4.67 172.32 5.17L172.32 5.17L172.32 5.17Q172.63 5.67 172.40 6.01L172.40 6.01L172.61 6.12L173.84 5.09L173.84 5.09Q174.00 4.69 173.54 4.13L173.54 4.13L173.54 4.13Q173.08 3.56 172.07 3.54ZM178.10 3.52L178.10 3.52L178.10 3.52Q177.56 3.50 177.13 3.62L177.13 3.62L177.13 3.62Q176.70 3.73 176.01 4.23L176.01 4.23L176.01 4.23Q175.32 4.74 174.83 5.75L174.83 5.75L174.83 5.75Q174.33 6.75 175.55 7.98L175.55 7.98L175.55 7.98Q174.11 9.20 174.45 10.71L174.45 10.71L174.45 10.71Q174.85 12.27 177.39 12.71L177.39 12.71L177.39 12.71Q180.07 11.31 180.45 9.92L180.45 9.92L180.45 9.92Q180.82 8.52 179.55 7.73L179.55 7.73L178.29 9.34L178.29 9.34Q179.31 10.14 179.12 10.75L179.12 10.75L179.12 10.75Q178.93 11.35 178.01 11.28L178.01 11.28L178.01 11.28Q177.08 11.21 176.22 10.35L176.22 10.35L176.22 10.35Q175.35 9.49 175.93 8.20L175.93 8.20L175.93 8.20Q176.32 8.36 176.86 8.42L176.86 8.42L178.21 6.99L178.08 6.84L178.08 6.84Q176.52 6.84 176.12 6.44L176.12 6.44L176.12 6.44Q175.72 6.04 175.79 5.40L175.79 5.40L175.79 5.40Q175.85 4.76 176.51 4.63L176.51 4.63L176.51 4.63Q177.16 4.50 177.76 4.79L177.76 4.79L177.76 4.79Q178.36 5.07 178.27 5.59L178.27 5.59L178.42 5.69L179.57 4.44L179.57 4.44Q179.47 4.16 179.06 3.85L179.06 3.85L179.06 3.85Q178.64 3.53 178.10 3.52ZM184.68 3.52L184.68 3.52L184.68 3.52Q184.03 3.53 183.53 3.83L183.53 3.83L183.53 3.83Q183.03 4.14 182.58 4.63L182.58 4.63L182.58 4.63Q182.12 5.13 181.64 5.88L181.64 5.88L181.64 5.88Q181.15 6.62 180.91 7.65L180.91 7.65L180.91 7.65Q180.67 8.68 180.91 9.61L180.91 9.61L180.91 9.61Q181.15 10.54 181.60 11.14L181.60 11.14L181.60 11.14Q182.05 11.74 182.63 12.19L182.63 12.19L182.63 12.19Q183.20 12.63 183.90 12.72L183.90 12.72L183.90 12.72Q184.60 12.81 185.48 11.75L185.48 11.75L185.48 11.75Q185.60 12.60 186.22 12.77L186.22 12.77L187.50 11.61L187.35 11.40L187.35 11.40Q187.06 11.60 186.92 11.12L186.92 11.12L186.87 7.94L186.87 7.94Q186.78 7.47 187.08 7.32L187.08 7.32L186.90 7.16L184.39 7.15L183.45 8.71L183.62 8.85L183.62 8.85Q183.82 8.49 185.38 8.62L185.38 8.62L185.40 11.13L185.40 11.13Q183.73 11.00 182.83 9.74L182.83 9.74L182.83 9.74Q181.94 8.48 181.92 7.49L181.92 7.49L181.92 7.49Q181.90 6.49 182.22 5.93L182.22 5.93L182.22 5.93Q182.53 5.36 183.20 5.07L183.20 5.07L183.20 5.07Q183.87 4.79 184.65 5.11L184.65 5.11L184.65 5.11Q185.43 5.44 185.21 5.89L185.21 5.89L185.36 6.02L186.83 5.00L186.83 5.00Q186.31 4.08 185.82 3.80L185.82 3.80L185.82 3.80Q185.33 3.52 184.68 3.52ZM191.54 3.52L191.54 3.52L191.54 3.52Q191.00 3.50 190.57 3.62L190.57 3.62L190.57 3.62Q190.13 3.73 189.45 4.23L189.45 4.23L189.45 4.23Q188.76 4.74 188.27 5.75L188.27 5.75L188.27 5.75Q187.77 6.75 188.99 7.98L188.99 7.98L188.99 7.98Q187.55 9.20 187.89 10.71L187.89 10.71L187.89 10.71Q188.29 12.27 190.83 12.71L190.83 12.71L190.83 12.71Q193.51 11.31 193.89 9.92L193.89 9.92L193.89 9.92Q194.26 8.52 192.99 7.73L192.99 7.73L191.73 9.34L191.73 9.34Q192.75 10.14 192.56 10.75L192.56 10.75L192.56 10.75Q192.37 11.35 191.45 11.28L191.45 11.28L191.45 11.28Q190.52 11.21 189.66 10.35L189.66 10.35L189.66 10.35Q188.79 9.49 189.37 8.20L189.37 8.20L189.37 8.20Q189.76 8.36 190.30 8.42L190.30 8.42L191.65 6.99L191.52 6.84L191.52 6.84Q189.96 6.84 189.56 6.44L189.56 6.44L189.56 6.44Q189.16 6.04 189.23 5.40L189.23 5.40L189.23 5.40Q189.29 4.76 189.95 4.63L189.95 4.63L189.95 4.63Q190.60 4.50 191.20 4.79L191.20 4.79L191.20 4.79Q191.80 5.07 191.71 5.59L191.71 5.59L191.86 5.69L193.01 4.44L193.01 4.44Q192.91 4.16 192.50 3.85L192.50 3.85L192.50 3.85Q192.08 3.53 191.54 3.52ZM195.91 3.64L194.35 4.98L194.42 5.20L194.42 5.20Q194.97 4.70 194.79 7.94L194.79 7.94L194.21 8.44L194.21 8.44Q194.42 8.67 194.81 8.98L194.81 8.98L194.81 8.98Q194.65 11.63 195.00 12.25L195.00 12.25L195.00 12.25Q195.35 12.88 195.95 13.05L195.95 13.05L197.20 11.74L197.07 11.50L197.07 11.50Q196.38 11.78 196.40 9.65L196.40 9.65L196.40 9.65Q197.03 9.91 197.91 9.44L197.91 9.44L197.91 9.44Q198.79 8.98 199.45 8.26L199.45 8.26L199.45 8.26Q200.11 7.54 200.27 6.72L200.27 6.72L200.27 6.72Q200.44 5.90 199.92 4.87L199.92 4.87L199.92 4.87Q199.40 3.84 197.86 3.55L197.86 3.55L196.49 4.86L196.49 4.86Q196.47 4.11 195.91 3.64L195.91 3.64ZM197.00 5.04L197.00 5.04Q198.00 5.16 198.53 6.22L198.53 6.22L198.53 6.22Q199.06 7.29 198.78 8.02L198.78 8.02L198.78 8.02Q198.50 8.74 197.73 8.68L197.73 8.68L197.73 8.68Q196.96 8.61 196.49 7.81L196.49 7.81L196.49 5.44L197.00 5.04Z"></path></g></svg>