<svg data-v-423bf9ae="" xmlns="http://www.w3.org/2000/svg" viewBox="0 0 621.0053014744512 60" class="font"><!----><!----><!----><g data-v-423bf9ae="" id="25f55407-301b-4239-8b4e-7b2608db6622" fill="black" transform="matrix(6.504035186854179,0,0,6.504035186854179,-1.170733830198003,-23.024284313354542)"><path d="M1.74 3.57L0.18 4.69L0.28 4.89L0.28 4.89Q0.64 4.77 0.67 5.36L0.67 5.36L0.67 5.36Q0.59 11.50 0.71 11.98L0.71 11.98L0.71 11.98Q0.83 12.46 1.42 12.75L1.42 12.75L2.87 11.60L2.65 11.39L2.65 11.39Q2.40 11.41 2.26 11.03L2.26 11.03L2.26 11.03Q2.11 10.65 2.19 4.36L2.19 4.36L2.19 4.36Q2.10 3.82 1.74 3.57L1.74 3.57ZM4.94 6.42L3.26 7.64L3.42 7.87L3.42 7.87Q3.92 7.56 3.87 8.50L3.87 8.50L3.87 8.50Q3.80 11.46 3.89 11.91L3.89 11.91L3.89 11.91Q3.98 12.37 4.55 12.71L4.55 12.71L6.00 11.46L6.00 11.29L6.00 11.29Q5.54 11.40 5.42 10.78L5.42 10.78L5.42 10.78Q5.30 10.17 5.37 8.27L5.37 8.27L5.37 8.27Q6.25 7.48 6.85 7.71L6.85 7.71L6.85 7.71Q7.46 7.94 7.45 9.37L7.45 9.37L7.45 9.37Q7.42 11.42 7.46 11.91L7.46 11.91L7.46 11.91Q7.51 12.40 8.05 12.76L8.05 12.76L9.47 11.49L9.44 11.33L9.44 11.33Q9.08 11.44 8.97 10.81L8.97 10.81L8.97 10.81Q8.85 10.18 8.92 8.74L8.92 8.74L8.92 8.74Q8.97 7.86 8.78 7.33L8.78 7.33L8.78 7.33Q8.59 6.80 7.96 6.56L7.96 6.56L7.96 6.56Q7.34 6.31 6.81 6.57L6.81 6.57L6.81 6.57Q6.28 6.83 5.93 7.12L5.93 7.12L5.93 7.12Q5.58 7.40 5.40 7.62L5.40 7.62L5.40 7.62Q5.46 6.77 4.94 6.42L4.94 6.42ZM12.50 6.52L12.50 6.52L12.50 6.52Q11.79 6.63 11.33 6.92L11.33 6.92L11.33 6.92Q10.88 7.21 10.56 7.52L10.56 7.52L10.56 7.52Q10.25 7.84 10.08 8.41L10.08 8.41L10.08 8.41Q9.92 8.98 10.37 9.39L10.37 9.39L10.37 9.39Q10.83 9.80 11.88 10.02L11.88 10.02L11.88 10.02Q12.93 10.24 13.28 10.55L13.28 10.55L13.28 10.55Q13.62 10.87 13.65 11.14L13.65 11.14L13.65 11.14Q13.69 11.42 13.44 11.52L13.44 11.52L13.44 11.52Q13.19 11.61 12.68 11.54L12.68 11.54L12.68 11.54Q12.17 11.46 11.71 11.22L11.71 11.22L11.71 11.22Q11.24 10.99 10.91 10.65L10.91 10.65L10.91 10.65Q10.58 10.32 10.86 10.02L10.86 10.02L10.70 9.93L9.64 10.84L9.64 10.84Q9.52 11.20 9.92 11.67L9.92 11.67L9.92 11.67Q10.32 12.14 10.93 12.40L10.93 12.40L10.93 12.40Q11.55 12.66 12.19 12.70L12.19 12.70L12.19 12.70Q12.83 12.74 13.47 12.32L13.47 12.32L13.47 12.32Q14.12 11.90 14.42 11.35L14.42 11.35L14.42 11.35Q14.72 10.81 14.66 10.26L14.66 10.26L14.66 10.26Q14.59 9.71 14.24 9.30L14.24 9.30L14.24 9.30Q13.88 8.88 12.70 8.55L12.70 8.55L12.70 8.55Q11.52 8.22 11.33 7.84L11.33 7.84L11.33 7.84Q11.14 7.45 11.62 7.38L11.62 7.38L11.62 7.38Q12.11 7.31 12.77 7.63L12.77 7.63L12.77 7.63Q13.43 7.96 13.21 8.25L13.21 8.25L13.30 8.35L14.31 7.38L14.31 7.38Q14.21 6.92 13.71 6.67L13.71 6.67L13.71 6.67Q13.21 6.41 12.50 6.52ZM17.21 3.70L15.97 4.68L15.97 4.68Q16.37 4.64 16.19 6.90L16.19 6.90L15.75 6.91L14.77 8.26L14.98 8.45L14.98 8.45Q15.30 8.09 16.15 8.13L16.15 8.13L16.15 8.13Q16.03 11.08 16.16 11.67L16.16 11.67L16.16 11.67Q16.28 12.25 16.96 12.72L16.96 12.72L16.96 12.72Q17.90 12.24 19.21 11.16L19.21 11.16L19.09 10.63L19.09 10.63Q17.62 11.38 17.53 10.75L17.53 10.75L17.53 10.75Q17.45 10.13 17.51 8.13L17.51 8.13L18.37 8.13L19.26 7.02L19.21 6.88L17.54 6.86L17.62 4.57L17.62 4.57Q17.54 3.98 17.21 3.70L17.21 3.70ZM20.88 3.68L19.51 4.86L19.51 4.86Q20.15 5.30 20.47 5.91L20.47 5.91L20.47 5.91Q21.62 5.15 21.76 4.96L21.76 4.96L21.76 4.96Q21.90 4.76 21.69 4.31L21.69 4.31L21.69 4.31Q21.48 3.86 20.88 3.68L20.88 3.68ZM19.72 7.76L19.72 7.76Q20.30 7.43 20.10 9.23L20.10 9.23L20.10 9.23Q20.07 11.37 20.12 11.88L20.12 11.88L20.12 11.88Q20.17 12.39 20.73 12.72L20.73 12.72L22.09 11.45L22.09 11.27L22.09 11.27Q21.72 11.29 21.63 10.76L21.63 10.76L21.63 10.76Q21.55 10.23 21.58 8.94L21.58 8.94L21.58 8.94Q21.62 7.65 21.60 7.25L21.60 7.25L21.60 7.25Q21.59 6.85 21.23 6.45L21.23 6.45L19.61 7.57L19.72 7.76ZM24.68 3.70L23.44 4.68L23.44 4.68Q23.84 4.64 23.67 6.90L23.67 6.90L23.22 6.91L22.24 8.26L22.45 8.45L22.45 8.45Q22.77 8.09 23.63 8.13L23.63 8.13L23.63 8.13Q23.50 11.08 23.63 11.67L23.63 11.67L23.63 11.67Q23.75 12.25 24.43 12.72L24.43 12.72L24.43 12.72Q25.37 12.24 26.68 11.16L26.68 11.16L26.56 10.63L26.56 10.63Q25.09 11.38 25.00 10.75L25.00 10.75L25.00 10.75Q24.92 10.13 24.99 8.13L24.99 8.13L25.84 8.13L26.74 7.02L26.68 6.88L25.01 6.86L25.09 4.57L25.09 4.57Q25.01 3.98 24.68 3.70L24.68 3.70ZM31.55 12.76L33.23 11.54L33.07 11.31L33.07 11.31Q32.62 11.40 32.62 10.68L32.62 10.68L32.62 10.68Q32.69 7.72 32.60 7.27L32.60 7.27L32.60 7.27Q32.51 6.82 31.94 6.47L31.94 6.47L30.49 7.72L30.56 7.85L30.56 7.85Q30.96 7.65 31.08 8.33L31.08 8.33L31.08 8.33Q31.19 9.02 31.12 10.91L31.12 10.91L31.12 10.91Q30.24 11.70 29.64 11.47L29.64 11.47L29.64 11.47Q29.03 11.25 29.04 9.81L29.04 9.81L29.04 9.81Q29.07 7.76 29.03 7.27L29.03 7.27L29.03 7.27Q28.98 6.78 28.44 6.42L28.44 6.42L27.02 7.69L27.15 7.85L27.15 7.85Q27.41 7.66 27.49 8.36L27.49 8.36L27.49 8.36Q27.58 9.07 27.53 10.51L27.53 10.51L27.53 10.51Q27.47 11.39 27.69 11.88L27.69 11.88L27.69 11.88Q27.90 12.38 28.53 12.63L28.53 12.63L28.53 12.63Q29.15 12.87 29.68 12.61L29.68 12.61L29.68 12.61Q30.21 12.35 30.56 12.07L30.56 12.07L30.56 12.07Q30.91 11.78 31.09 11.57L31.09 11.57L31.09 11.57Q31.03 12.41 31.55 12.76L31.55 12.76ZM35.67 3.70L34.43 4.68L34.43 4.68Q34.83 4.64 34.65 6.90L34.65 6.90L34.21 6.91L33.22 8.26L33.43 8.45L33.43 8.45Q33.76 8.09 34.61 8.13L34.61 8.13L34.61 8.13Q34.49 11.08 34.61 11.67L34.61 11.67L34.61 11.67Q34.74 12.25 35.42 12.72L35.42 12.72L35.42 12.72Q36.35 12.24 37.67 11.16L37.67 11.16L37.54 10.63L37.54 10.63Q36.07 11.38 35.99 10.75L35.99 10.75L35.99 10.75Q35.90 10.13 35.97 8.13L35.97 8.13L36.83 8.13L37.72 7.02L37.67 6.88L36.00 6.86L36.07 4.57L36.07 4.57Q36.00 3.98 35.67 3.70L35.67 3.70ZM43.46 3.66L43.46 3.66L43.46 3.66Q43.00 3.88 42.57 4.31L42.57 4.31L42.57 4.31Q42.38 3.75 41.92 3.58L41.92 3.58L40.66 4.68L40.74 4.97L40.74 4.97Q41.27 4.76 41.17 7.83L41.17 7.83L41.17 7.83Q40.99 10.55 41.13 11.27L41.13 11.27L41.13 11.27Q41.28 11.99 42.33 12.52L42.33 12.52L42.33 12.52Q43.38 13.06 44.42 12.41L44.42 12.41L44.42 12.41Q45.46 11.76 45.84 11.30L45.84 11.30L45.84 11.30Q46.22 10.83 46.35 10.43L46.35 10.43L46.35 10.43Q46.48 10.03 46.50 9.41L46.50 9.41L46.50 9.41Q46.53 8.78 46.13 7.99L46.13 7.99L46.13 7.99Q45.73 7.21 44.41 7.03L44.41 7.03L44.41 7.03Q45.83 6.01 45.63 4.96L45.63 4.96L45.63 4.96Q45.43 3.92 44.68 3.68L44.68 3.68L44.68 3.68Q43.92 3.44 43.46 3.66ZM43.48 4.49L43.48 4.49L43.48 4.49Q44.03 4.63 44.22 5.41L44.22 5.41L44.22 5.41Q44.41 6.19 44.00 6.96L44.00 6.96L44.00 6.96Q43.05 6.95 42.68 7.33L42.68 7.33L42.71 4.83L42.71 4.83Q42.92 4.34 43.48 4.49ZM42.66 8.32L42.66 8.32Q42.92 7.64 43.52 7.57L43.52 7.57L43.52 7.57Q44.11 7.51 44.65 8.29L44.65 8.29L44.65 8.29Q45.19 9.06 45.10 9.92L45.10 9.92L45.10 9.92Q45.01 10.78 44.60 11.31L44.60 11.31L44.60 11.31Q44.19 11.84 43.61 11.55L43.61 11.55L43.61 11.55Q43.04 11.27 42.76 10.63L42.76 10.63L42.76 10.63Q42.49 10.00 42.66 8.32L42.66 8.32ZM49.33 6.49L49.33 6.49Q48.18 7.24 47.70 7.80L47.70 7.80L47.70 7.80Q47.23 8.35 47.04 8.92L47.04 8.92L47.04 8.92Q46.85 9.48 46.97 10.33L46.97 10.33L46.97 10.33Q47.10 11.18 47.97 11.96L47.97 11.96L47.97 11.96Q48.84 12.75 49.36 12.75L49.36 12.75L49.36 12.75Q49.88 12.76 50.99 11.74L50.99 11.74L50.99 11.74Q51.42 11.35 51.74 10.91L51.74 10.91L51.74 10.91Q52.07 10.47 52.22 9.67L52.22 9.67L52.22 9.67Q52.38 8.87 51.96 7.90L51.96 7.90L51.96 7.90Q50.93 6.30 49.33 6.49L49.33 6.49ZM49.10 7.70L49.10 7.70L49.10 7.70Q49.97 7.83 50.48 8.81L50.48 8.81L50.48 8.81Q50.98 9.79 50.81 10.78L50.81 10.78L50.81 10.78Q50.65 11.76 49.77 11.29L49.77 11.29L49.77 11.29Q48.88 10.81 48.44 10.00L48.44 10.00L48.44 10.00Q48.00 9.19 48.11 8.37L48.11 8.37L48.11 8.37Q48.23 7.56 49.10 7.70ZM54.27 6.42L52.60 7.64L52.75 7.87L52.75 7.87Q53.26 7.56 53.20 8.50L53.20 8.50L53.20 8.50Q53.14 11.46 53.22 11.91L53.22 11.91L53.22 11.91Q53.31 12.37 53.89 12.71L53.89 12.71L55.34 11.46L55.34 11.29L55.34 11.29Q54.88 11.40 54.76 10.78L54.76 10.78L54.76 10.78Q54.63 10.17 54.71 8.27L54.71 8.27L54.71 8.27Q55.58 7.48 56.19 7.71L56.19 7.71L56.19 7.71Q56.79 7.94 56.79 9.37L56.79 9.37L56.79 9.37Q56.75 11.42 56.80 11.91L56.80 11.91L56.80 11.91Q56.85 12.40 57.39 12.76L57.39 12.76L58.81 11.49L58.78 11.33L58.78 11.33Q58.42 11.44 58.30 10.81L58.30 10.81L58.30 10.81Q58.19 10.18 58.26 8.74L58.26 8.74L58.26 8.74Q58.30 7.86 58.11 7.33L58.11 7.33L58.11 7.33Q57.92 6.80 57.30 6.56L57.30 6.56L57.30 6.56Q56.68 6.31 56.14 6.57L56.14 6.57L56.14 6.57Q55.61 6.83 55.27 7.12L55.27 7.12L55.27 7.12Q54.92 7.40 54.74 7.62L54.74 7.62L54.74 7.62Q54.80 6.77 54.27 6.42L54.27 6.42ZM60.68 6.42L59.00 7.64L59.16 7.87L59.16 7.87Q59.66 7.56 59.61 8.50L59.61 8.50L59.61 8.50Q59.54 11.46 59.63 11.91L59.63 11.91L59.63 11.91Q59.72 12.37 60.29 12.71L60.29 12.71L61.74 11.46L61.74 11.29L61.74 11.29Q61.28 11.40 61.16 10.78L61.16 10.78L61.16 10.78Q61.04 10.17 61.11 8.27L61.11 8.27L61.11 8.27Q61.99 7.48 62.59 7.71L62.59 7.71L62.59 7.71Q63.20 7.94 63.19 9.37L63.19 9.37L63.19 9.37Q63.16 11.42 63.21 11.91L63.21 11.91L63.21 11.91Q63.25 12.40 63.79 12.76L63.79 12.76L65.21 11.49L65.18 11.33L65.18 11.33Q64.83 11.44 64.71 10.81L64.71 10.81L64.71 10.81Q64.59 10.18 64.66 8.74L64.66 8.74L64.66 8.74Q64.71 7.86 64.52 7.33L64.52 7.33L64.52 7.33Q64.33 6.80 63.70 6.56L63.70 6.56L63.70 6.56Q63.08 6.31 62.55 6.57L62.55 6.57L62.55 6.57Q62.02 6.83 61.67 7.12L61.67 7.12L61.67 7.12Q61.33 7.40 61.14 7.62L61.14 7.62L61.14 7.62Q61.20 6.77 60.68 6.42L60.68 6.42ZM68.57 6.60L68.57 6.60L68.57 6.60Q67.50 6.43 66.58 7.26L66.58 7.26L66.58 7.26Q65.65 8.09 65.39 9.20L65.39 9.20L65.39 9.20Q65.13 10.31 65.55 11.26L65.55 11.26L65.55 11.26Q65.97 12.22 67.11 12.62L67.11 12.62L67.11 12.62Q68.04 12.93 69.04 12.18L69.04 12.18L69.04 12.18Q70.05 11.43 70.36 10.77L70.36 10.77L70.16 10.61L70.16 10.61Q68.78 11.56 67.96 11.24L67.96 11.24L67.96 11.24Q67.14 10.92 67.00 10.51L67.00 10.51L68.48 9.54L68.48 9.54Q69.92 8.65 69.78 7.70L69.78 7.70L69.78 7.70Q69.64 6.76 68.57 6.60ZM66.48 8.64L66.48 8.64L66.48 8.64Q66.47 8.14 66.84 7.78L66.84 7.78L66.84 7.78Q67.21 7.41 67.82 7.78L67.82 7.78L67.82 7.78Q68.43 8.15 68.33 8.76L68.33 8.76L68.33 8.76Q68.24 9.37 66.79 10.14L66.79 10.14L66.79 10.14Q66.64 9.80 66.57 9.47L66.57 9.47L66.57 9.47Q66.50 9.14 66.48 8.64ZM75.02 3.62L73.21 5.38L73.38 5.71L73.38 5.71Q73.93 5.26 73.87 6.61L73.87 6.61L73.87 6.61Q73.80 10.88 73.90 11.54L73.90 11.54L73.90 11.54Q73.99 12.20 74.61 12.69L74.61 12.69L76.16 11.24L76.16 11.01L76.16 11.01Q75.67 11.15 75.54 10.08L75.54 10.08L75.54 10.08Q75.42 9.02 75.48 6.68L75.48 6.68L78.03 10.71L78.03 10.71Q78.03 11.06 78.10 11.64L78.10 11.64L78.10 11.64Q78.17 12.22 78.65 12.70L78.65 12.70L80.15 11.16L80.12 10.93L80.12 10.93Q79.73 11.09 79.62 10.04L79.62 10.04L79.62 10.04Q79.52 8.98 79.59 6.90L79.59 6.90L79.59 5.97L79.60 4.63L79.60 4.63Q79.60 4.01 79.17 3.54L79.17 3.54L77.49 5.24L77.59 5.56L77.59 5.56Q78.09 5.31 78.03 6.16L78.03 6.16L78.02 8.98L75.47 4.84L75.47 4.84Q75.60 4.14 75.02 3.62L75.02 3.62ZM82.87 6.49L82.87 6.49Q81.72 7.24 81.24 7.80L81.24 7.80L81.24 7.80Q80.77 8.35 80.58 8.92L80.58 8.92L80.58 8.92Q80.38 9.48 80.51 10.33L80.51 10.33L80.51 10.33Q80.64 11.18 81.50 11.96L81.50 11.96L81.50 11.96Q82.37 12.75 82.89 12.75L82.89 12.75L82.89 12.75Q83.41 12.76 84.53 11.74L84.53 11.74L84.53 11.74Q84.96 11.35 85.28 10.91L85.28 10.91L85.28 10.91Q85.61 10.47 85.76 9.67L85.76 9.67L85.76 9.67Q85.91 8.87 85.50 7.90L85.50 7.90L85.50 7.90Q84.46 6.30 82.87 6.49L82.87 6.49ZM82.64 7.70L82.64 7.70L82.64 7.70Q83.51 7.83 84.01 8.81L84.01 8.81L84.01 8.81Q84.52 9.79 84.35 10.78L84.35 10.78L84.35 10.78Q84.18 11.76 83.30 11.29L83.30 11.29L83.30 11.29Q82.42 10.81 81.98 10.00L81.98 10.00L81.98 10.00Q81.53 9.19 81.65 8.37L81.65 8.37L81.65 8.37Q81.77 7.56 82.64 7.70ZM88.31 3.70L87.07 4.68L87.07 4.68Q87.47 4.64 87.29 6.90L87.29 6.90L86.85 6.91L85.87 8.26L86.08 8.45L86.08 8.45Q86.40 8.09 87.25 8.13L87.25 8.13L87.25 8.13Q87.13 11.08 87.26 11.67L87.26 11.67L87.26 11.67Q87.38 12.25 88.06 12.72L88.06 12.72L88.06 12.72Q89.00 12.24 90.31 11.16L90.31 11.16L90.19 10.63L90.19 10.63Q88.72 11.38 88.63 10.75L88.63 10.75L88.63 10.75Q88.55 10.13 88.61 8.13L88.61 8.13L89.47 8.13L90.36 7.02L90.31 6.88L88.64 6.86L88.72 4.57L88.72 4.57Q88.64 3.98 88.31 3.70L88.31 3.70ZM93.87 6.60L93.87 6.60L93.87 6.60Q92.80 6.43 91.88 7.26L91.88 7.26L91.88 7.26Q90.95 8.09 90.69 9.20L90.69 9.20L90.69 9.20Q90.43 10.31 90.85 11.26L90.85 11.26L90.85 11.26Q91.27 12.22 92.41 12.62L92.41 12.62L92.41 12.62Q93.34 12.93 94.34 12.18L94.34 12.18L94.34 12.18Q95.35 11.43 95.66 10.77L95.66 10.77L95.46 10.61L95.46 10.61Q94.08 11.56 93.26 11.24L93.26 11.24L93.26 11.24Q92.44 10.92 92.30 10.51L92.30 10.51L93.78 9.54L93.78 9.54Q95.22 8.65 95.08 7.70L95.08 7.70L95.08 7.70Q94.94 6.76 93.87 6.60ZM91.78 8.64L91.78 8.64L91.78 8.64Q91.77 8.14 92.14 7.78L92.14 7.78L92.14 7.78Q92.51 7.41 93.12 7.78L93.12 7.78L93.12 7.78Q93.73 8.15 93.63 8.76L93.63 8.76L93.63 8.76Q93.54 9.37 92.09 10.14L92.09 10.14L92.09 10.14Q91.94 9.80 91.87 9.47L91.87 9.47L91.87 9.47Q91.80 9.14 91.78 8.64Z"></path></g><!----><!----></svg>